#N canvas 133 224 1920 1136 10;
#X obj 229 146 lop~ 0.2;
#X obj 230 123 sig~;
#X obj 233 107 hsl 64 12 0.1 1 0 0 empty empty speed 16 6 1 8 #fcfcfc #000000 #000000 0 1;
#X obj 185 213 +~;
#N canvas 508 156 133 284 burn 0;
#X obj 0 44 noise~;
#X obj 73 -18 loadbang;
#X msg 102 17 0.6;
#X obj 0 149 clip~ -1 1;
#X obj 32 -52 inlet~;
#X obj 0 214 outlet~;
#X obj 25 17 *~ 150;
#X obj 0 128 *~ 120;
#X obj 0 107 hip~ 120;
#X obj 25 -4 *~;
#X obj 0 65 bp~ 8000 0.5;
#X obj 31 170 *~ 12000;
#X msg 73 17 1;
#X obj 0 86 vcf~ 0 1;
#X obj 0 193 vcf~ 0 0.6;
#X connect 0 0 10 0;
#X connect 1 0 2 0;
#X connect 1 0 12 0;
#X connect 2 0 14 2;
#X connect 3 0 14 0;
#X connect 4 0 9 0;
#X connect 4 0 9 1;
#X connect 4 0 11 0;
#X connect 6 0 13 1;
#X connect 7 0 3 0;
#X connect 8 0 7 0;
#X connect 9 0 6 0;
#X connect 10 0 13 0;
#X connect 11 0 14 1;
#X connect 12 0 13 2;
#X connect 13 0 8 0;
#X connect 14 0 5 0;
#X restore 264 172 pd burn;
#N canvas 0 0 212 234 turbine 0;
#X msg 13 21 3097 4495 5588 7471 11000;
#X obj 0 129 osc~;
#X obj 39 128 osc~;
#X obj 78 127 osc~;
#X obj 116 127 osc~;
#X obj 156 129 osc~;
#X obj 13 42 unpack f f f f f;
#X obj 0 68 sig~;
#X obj 38 68 sig~;
#X obj 78 67 sig~;
#X obj 116 67 sig~;
#X obj 155 67 sig~;
#X obj 0 97 *~;
#X obj 39 95 *~;
#X obj 79 93 *~;
#X obj 116 91 *~;
#X obj 156 92 *~;
#X obj 19 165 *~ 0.25;
#X obj 137 165 *~ 0.4;
#X obj 13 0 loadbang;
#X obj 77 196 clip~ -0.9 0.9;
#X obj 77 217 outlet~;
#X obj 76 0 inlet~ engine speed;
#X connect 0 0 6 0;
#X connect 1 0 17 0;
#X connect 2 0 17 0;
#X connect 3 0 20 0;
#X connect 4 0 18 0;
#X connect 5 0 18 0;
#X connect 6 0 7 0;
#X connect 6 1 8 0;
#X connect 6 2 9 0;
#X connect 6 3 10 0;
#X connect 6 4 11 0;
#X connect 7 0 12 0;
#X connect 8 0 13 0;
#X connect 9 0 14 0;
#X connect 10 0 15 0;
#X connect 11 0 16 0;
#X connect 12 0 1 0;
#X connect 13 0 2 0;
#X connect 14 0 3 0;
#X connect 15 0 4 0;
#X connect 16 0 5 0;
#X connect 17 0 20 0;
#X connect 18 0 20 0;
#X connect 19 0 0 0;
#X connect 20 0 21 0;
#X connect 22 0 16 1;
#X connect 22 0 15 1;
#X connect 22 0 14 1;
#X connect 22 0 13 1;
#X connect 22 0 12 1;
#X restore 184 173 pd turbine;
#X obj 185 233 lop~ 11000;
#X obj 184 193 *~ 0.5;
#X obj 186 275 dac~;
#X obj 185 253 *~ 0.1;
#X obj 227 9 tgl 16 1 stop/start start empty 0 -8 0 10 #fcfcfc #000000 #000000 1 1;
#X obj 226 73 line;
#X msg 227 30 1 30000;
#X msg 308 32 0 10000;
#X msg 440 136 0;
#X obj 535 135 metro 60000;
#X obj 649 135 metro 1000;
#X obj 535 222 f;
#X obj 584 221 + 1;
#X obj 535 267 mod 60;
#X obj 649 220 f;
#X obj 691 219 + 1;
#X obj 751 218 f;
#X obj 800 218 + 1;
#X obj 649 268 mod 60;
#X obj 535 321 send m;
#X obj 649 321 send s;
#X obj 751 317 send ms;
#X obj 428 405 nbx 5 14 -1e+37 1e+37 0 0 empty m Minutes 0 -8 0 10 #00f8fc #000000 #000000 0 256;
#X obj 504 404 nbx 5 14 -1e+37 1e+37 0 0 empty s Seconds 0 -8 0 10 #00f8fc #000000 #000000 0 256;
#X obj 581 405 nbx 5 14 -1e+37 1e+37 0 0 empty ms Milliseconds 0 -8 0 10 #00f8fc #000000 #000000 0 256;
#X obj 751 134 metro 1;
#X obj 535 30 r stop/start;
#X obj 751 268 mod 1000;
#X obj 440 109 sel 0;
#X obj 504 445 s off;
#X obj 311 5 bng 16 250 50 0 empty off empty 0 -8 0 10 #fcfcfc #000000 #000000;
#X obj 504 423 > 30;
#X connect 0 0 4 0;
#X connect 0 0 5 0;
#X connect 1 0 0 0;
#X connect 2 0 1 0;
#X connect 3 0 6 0;
#X connect 4 0 3 1;
#X connect 5 0 7 0;
#X connect 6 0 9 0;
#X connect 7 0 3 0;
#X connect 9 0 8 0;
#X connect 9 0 8 1;
#X connect 10 0 12 0;
#X connect 11 0 2 0;
#X connect 12 0 11 0;
#X connect 13 0 11 0;
#X connect 14 0 17 1;
#X connect 14 0 20 1;
#X connect 14 0 22 1;
#X connect 15 0 17 0;
#X connect 16 0 20 0;
#X connect 17 0 19 0;
#X connect 17 0 18 0;
#X connect 18 0 17 1;
#X connect 19 0 25 0;
#X connect 20 0 21 0;
#X connect 20 0 24 0;
#X connect 21 0 20 1;
#X connect 22 0 23 0;
#X connect 22 0 33 0;
#X connect 23 0 22 1;
#X connect 24 0 26 0;
#X connect 29 0 37 0;
#X connect 31 0 22 0;
#X connect 32 0 16 0;
#X connect 32 0 31 0;
#X connect 32 0 15 0;
#X connect 32 0 34 0;
#X connect 33 0 27 0;
#X connect 34 0 14 0;
#X connect 36 0 13 0;
#X connect 37 0 35 0;
