#N canvas 228 228 1920 1136 12;
#X obj 90 55 inlet;
#X obj 30 102 swap 1;
#X obj 141 101 * 10000;
#X obj 30 147 /;
#X obj 30 171 outlet ms;
#X obj 141 125 outlet Hz;
#X connect 0 0 1 0;
#X connect 0 0 2 0;
#X connect 1 0 3 0;
#X connect 1 1 3 1;
#X connect 2 0 5 0;
#X connect 3 0 4 0;
