#N canvas -33 241 1920 1136 10;
#X obj 69 76 select 0 1 2 3 4 5 6 7;
#X obj 111 274 dac~;
#X obj 69 -9 tgl 15 0 empty start empty 0 -6 0 8 #fcfcfc #000000 #000000 0 1;
#X obj 69 33 f;
#X obj 100 33 + 1;
#X obj 69 54 mod 8;
#X obj 111 247 *~ 1;
#X obj 214 178 loadbang;
#X obj 220 124 escapement;
#X obj 163 14 noise~;
#X obj 163 38 hip~ 200;
#X obj 69 125 clocktick;
#X obj 139 124 clocktick2;
#X msg 214 197 0.09;
#X obj -3 125 clockhand;
#X obj 111 192 *~ 0.3;
#X obj 69 148 *~ 0.1;
#X obj 139 147 *~ 0.1;
#X obj 220 147 *~ 0.06;
#X obj -3 148 *~ 0.3;
#X obj 121 219 bodyresonance~;
#X floatatom 116 -30 5 0 0 0 - - - 0;
#X obj 69 11 metro 500;
#X connect 0 0 8 0;
#X connect 0 0 11 0;
#X connect 0 0 14 0;
#X connect 0 1 8 0;
#X connect 0 2 8 0;
#X connect 0 2 12 0;
#X connect 0 3 8 0;
#X connect 0 4 8 0;
#X connect 0 4 11 0;
#X connect 0 5 8 0;
#X connect 0 6 8 0;
#X connect 0 6 12 0;
#X connect 0 7 8 0;
#X connect 2 0 22 0;
#X connect 3 0 4 0;
#X connect 3 0 5 0;
#X connect 4 0 3 1;
#X connect 5 0 0 0;
#X connect 6 0 1 0;
#X connect 6 0 1 1;
#X connect 7 0 13 0;
#X connect 8 0 18 0;
#X connect 9 0 10 0;
#X connect 10 0 11 1;
#X connect 10 0 12 1;
#X connect 10 0 14 1;
#X connect 11 0 16 0;
#X connect 12 0 17 0;
#X connect 13 0 20 1;
#X connect 14 0 19 0;
#X connect 15 0 6 0;
#X connect 15 0 20 0;
#X connect 16 0 15 0;
#X connect 17 0 15 0;
#X connect 18 0 15 0;
#X connect 19 0 15 0;
#X connect 20 0 6 0;
#X connect 21 0 22 1;
#X connect 22 0 3 0;
